{
    "asset" : {
        "generator" : "Khronos glTF Blender I/O v1.8.19",
        "version" : "2.0"
    },
    "scene" : 0,
    "scenes" : [
        {
            "name" : "Scene",
            "nodes" : [
                16
            ]
        }
    ],
    "nodes" : [
        {
            "name" : "Bone.002",
            "rotation" : [
                -1.1265208904598367e-10,
                0.043619390577077866,
                2.619704675410617e-09,
                0.9990482330322266
            ],
            "translation" : [
                6.938893903907228e-18,
                1.4087047576904297,
                5.4643789493269423e-17
            ]
        },
        {
            "children" : [
                0
            ],
            "name" : "Bone.001",
            "rotation" : [
                -1.1351268536241577e-10,
                -0.043619509786367416,
                -2.5999182806657473e-09,
                0.9990482330322266
            ],
            "scale" : [
                1,
                0.9999999403953552,
                1
            ],
            "translation" : [
                0,
                1.434245228767395,
                0
            ]
        },
        {
            "children" : [
                1
            ],
            "name" : "Bone",
            "rotation" : [
                -2.9802322387695312e-08,
                1.1920927533992653e-07,
                4.235164736271502e-22,
                1
            ],
            "scale" : [
                1,
                0.9999998807907104,
                0.9999998807907104
            ],
            "translation" : [
                0,
                -1.4177608489990234,
                0
            ]
        },
        {
            "name" : "Bone.004",
            "rotation" : [
                0.08682407438755035,
                -0.007596238050609827,
                1.2708525787274993e-08,
                0.9961947202682495
            ],
            "scale" : [
                1,
                1,
                0.9999999403953552
            ],
            "translation" : [
                -2.378010606207681e-07,
                1.434245228767395,
                3.725233677087658e-09
            ]
        },
        {
            "children" : [
                3
            ],
            "name" : "Bone.003",
            "rotation" : [
                0.04974111169576645,
                0.00283620972186327,
                -0.9985488057136536,
                0.020451776683330536
            ],
            "scale" : [
                1,
                0.9999996423721313,
                0.9999999403953552
            ],
            "translation" : [
                2.236806631088257,
                1.478375792503357,
                0.17948584258556366
            ]
        },
        {
            "name" : "Bone.006",
            "rotation" : [
                0.08682410418987274,
                0.00759600754827261,
                2.1326951316069653e-09,
                0.9961947202682495
            ],
            "scale" : [
                1.0000001192092896,
                0.9999999403953552,
                1
            ],
            "translation" : [
                4.76837158203125e-07,
                1.434245228767395,
                -7.450495331795537e-09
            ]
        },
        {
            "children" : [
                5
            ],
            "name" : "Bone.005",
            "rotation" : [
                0.03380468115210533,
                0.01416505966335535,
                -0.9992929100990295,
                0.008387092500925064
            ],
            "scale" : [
                1,
                0.9999996423721313,
                0.9999998807907104
            ],
            "translation" : [
                -2.2281064987182617,
                1.4192883968353271,
                -0.1833578199148178
            ]
        },
        {
            "name" : "Bone.008",
            "rotation" : [
                -0.04361937567591667,
                -7.111430022632703e-07,
                2.5199684117183097e-08,
                0.9990482330322266
            ],
            "scale" : [
                1.0000001192092896,
                1,
                1
            ],
            "translation" : [
                5.960468740795477e-08,
                1.4342453479766846,
                1.117593484423196e-08
            ]
        },
        {
            "children" : [
                7
            ],
            "name" : "Bone.007",
            "rotation" : [
                -0.048672545701265335,
                0.04411211982369423,
                0.9977009296417236,
                0.01667483150959015
            ],
            "scale" : [
                0.9999999403953552,
                0.9999995827674866,
                0.9999998211860657
            ],
            "translation" : [
                -0.6895920634269714,
                -1.552322506904602,
                0.021007129922509193
            ]
        },
        {
            "name" : "Bone.010",
            "rotation" : [
                -0.04361937940120697,
                -8.332939955835172e-07,
                2.978805291320441e-08,
                0.9990482330322266
            ],
            "translation" : [
                6.039613253960852e-14,
                1.4342453479766846,
                4.263257092186959e-14
            ]
        },
        {
            "children" : [
                9
            ],
            "name" : "Bone.009",
            "rotation" : [
                -0.006491711363196373,
                -0.044414158910512924,
                -0.9989399313926697,
                0.010213731788098812
            ],
            "scale" : [
                0.9999999403953552,
                0.9999996423721313,
                0.9999998807907104
            ],
            "translation" : [
                0.7324590682983398,
                -1.552322506904602,
                -4.017708192805003e-07
            ]
        },
        {
            "mesh" : 0,
            "name" : "head",
            "skin" : 0
        },
        {
            "mesh" : 1,
            "name" : "larm",
            "skin" : 0
        },
        {
            "mesh" : 2,
            "name" : "legs",
            "skin" : 0
        },
        {
            "mesh" : 3,
            "name" : "rarm",
            "skin" : 0
        },
        {
            "mesh" : 4,
            "name" : "torso",
            "skin" : 0
        },
        {
            "children" : [
                11,
                12,
                13,
                14,
                15,
                2,
                4,
                6,
                8,
                10
            ],
            "name" : "bones",
            "translation" : [
                0,
                4.4715046882629395,
                0
            ]
        }
    ],
    "materials" : [
        {
            "doubleSided" : true,
            "name" : "head",
            "pbrMetallicRoughness" : {
                "metallicFactor" : 0,
                "roughnessFactor" : 0.5
            }
        },
        {
            "doubleSided" : true,
            "name" : "larm",
            "pbrMetallicRoughness" : {
                "metallicFactor" : 0,
                "roughnessFactor" : 0.5
            }
        },
        {
            "doubleSided" : true,
            "name" : "lleg",
            "pbrMetallicRoughness" : {
                "metallicFactor" : 0,
                "roughnessFactor" : 0.5
            }
        },
        {
            "doubleSided" : true,
            "name" : "rleg",
            "pbrMetallicRoughness" : {
                "metallicFactor" : 0,
                "roughnessFactor" : 0.5
            }
        },
        {
            "doubleSided" : true,
            "name" : "rarm",
            "pbrMetallicRoughness" : {
                "metallicFactor" : 0,
                "roughnessFactor" : 0.5
            }
        },
        {
            "doubleSided" : true,
            "name" : "torso",
            "pbrMetallicRoughness" : {
                "metallicFactor" : 0,
                "roughnessFactor" : 0.5
            }
        }
    ],
    "meshes" : [
        {
            "name" : "Cube.017",
            "primitives" : [
                {
                    "attributes" : {
                        "POSITION" : 0,
                        "NORMAL" : 1,
                        "TEXCOORD_0" : 2,
                        "JOINTS_0" : 3,
                        "WEIGHTS_0" : 4
                    },
                    "indices" : 5,
                    "material" : 0
                }
            ]
        },
        {
            "name" : "Cube.006",
            "primitives" : [
                {
                    "attributes" : {
                        "POSITION" : 7,
                        "NORMAL" : 8,
                        "TEXCOORD_0" : 9,
                        "JOINTS_0" : 10,
                        "WEIGHTS_0" : 11
                    },
                    "indices" : 12,
                    "material" : 1
                }
            ]
        },
        {
            "name" : "Cube.007",
            "primitives" : [
                {
                    "attributes" : {
                        "POSITION" : 13,
                        "NORMAL" : 14,
                        "TEXCOORD_0" : 15,
                        "JOINTS_0" : 16,
                        "WEIGHTS_0" : 17
                    },
                    "indices" : 18,
                    "material" : 2
                },
                {
                    "attributes" : {
                        "POSITION" : 19,
                        "NORMAL" : 20,
                        "TEXCOORD_0" : 21,
                        "JOINTS_0" : 22,
                        "WEIGHTS_0" : 23
                    },
                    "indices" : 24,
                    "material" : 3
                }
            ]
        },
        {
            "name" : "Cube.008",
            "primitives" : [
                {
                    "attributes" : {
                        "POSITION" : 25,
                        "NORMAL" : 26,
                        "TEXCOORD_0" : 27,
                        "JOINTS_0" : 28,
                        "WEIGHTS_0" : 29
                    },
                    "indices" : 30,
                    "material" : 4
                }
            ]
        },
        {
            "name" : "Cube.013",
            "primitives" : [
                {
                    "attributes" : {
                        "POSITION" : 31,
                        "NORMAL" : 32,
                        "TEXCOORD_0" : 33,
                        "JOINTS_0" : 34,
                        "WEIGHTS_0" : 35
                    },
                    "indices" : 36,
                    "material" : 5
                }
            ]
        }
    ],
    "skins" : [
        {
            "inverseBindMatrices" : 6,
            "joints" : [
                2,
                1,
                0,
                4,
                3,
                6,
                5,
                8,
                7,
                10,
                9
            ],
            "name" : "bones"
        }
    ],
    "accessors" : [
        {
            "bufferView" : 0,
            "componentType" : 5126,
            "count" : 962,
            "max" : [
                0.9248652458190918,
                7.865987777709961,
                0.9125238656997681
            ],
            "min" : [
                -0.9001826047897339,
                5.842867374420166,
                -0.9125239849090576
            ],
            "type" : "VEC3"
        },
        {
            "bufferView" : 1,
            "componentType" : 5126,
            "count" : 962,
            "type" : "VEC3"
        },
        {
            "bufferView" : 2,
            "componentType" : 5126,
            "count" : 962,
            "type" : "VEC2"
        },
        {
            "bufferView" : 3,
            "componentType" : 5121,
            "count" : 962,
            "type" : "VEC4"
        },
        {
            "bufferView" : 4,
            "componentType" : 5126,
            "count" : 962,
            "type" : "VEC4"
        },
        {
            "bufferView" : 5,
            "componentType" : 5123,
            "count" : 5376,
            "type" : "SCALAR"
        },
        {
            "bufferView" : 6,
            "componentType" : 5126,
            "count" : 11,
            "type" : "MAT4"
        },
        {
            "bufferView" : 7,
            "componentType" : 5126,
            "count" : 347,
            "max" : [
                2.351011276245117,
                5.797629356384277,
                0.6446765661239624
            ],
            "min" : [
                1.3415021896362305,
                2.420743703842163,
                -0.6446765661239624
            ],
            "type" : "VEC3"
        },
        {
            "bufferView" : 8,
            "componentType" : 5126,
            "count" : 347,
            "type" : "VEC3"
        },
        {
            "bufferView" : 9,
            "componentType" : 5126,
            "count" : 347,
            "type" : "VEC2"
        },
        {
            "bufferView" : 10,
            "componentType" : 5121,
            "count" : 347,
            "type" : "VEC4"
        },
        {
            "bufferView" : 11,
            "componentType" : 5126,
            "count" : 347,
            "type" : "VEC4"
        },
        {
            "bufferView" : 12,
            "componentType" : 5123,
            "count" : 1494,
            "type" : "SCALAR"
        },
        {
            "bufferView" : 13,
            "componentType" : 5126,
            "count" : 309,
            "max" : [
                1.3032805919647217,
                3.077923536300659,
                1.053295612335205
            ],
            "min" : [
                3.505061272335297e-07,
                0.018575988709926605,
                -0.66362065076828
            ],
            "type" : "VEC3"
        },
        {
            "bufferView" : 14,
            "componentType" : 5126,
            "count" : 309,
            "type" : "VEC3"
        },
        {
            "bufferView" : 15,
            "componentType" : 5126,
            "count" : 309,
            "type" : "VEC2"
        },
        {
            "bufferView" : 16,
            "componentType" : 5121,
            "count" : 309,
            "type" : "VEC4"
        },
        {
            "bufferView" : 17,
            "componentType" : 5126,
            "count" : 309,
            "type" : "VEC4"
        },
        {
            "bufferView" : 18,
            "componentType" : 5123,
            "count" : 1356,
            "type" : "SCALAR"
        },
        {
            "bufferView" : 19,
            "componentType" : 5126,
            "count" : 309,
            "max" : [
                3.571442732663854e-07,
                3.077923536300659,
                1.053295612335205
            ],
            "min" : [
                -1.3032805919647217,
                0.018575988709926605,
                -0.66362065076828
            ],
            "type" : "VEC3"
        },
        {
            "bufferView" : 20,
            "componentType" : 5126,
            "count" : 309,
            "type" : "VEC3"
        },
        {
            "bufferView" : 21,
            "componentType" : 5126,
            "count" : 309,
            "type" : "VEC2"
        },
        {
            "bufferView" : 22,
            "componentType" : 5121,
            "count" : 309,
            "type" : "VEC4"
        },
        {
            "bufferView" : 23,
            "componentType" : 5126,
            "count" : 309,
            "type" : "VEC4"
        },
        {
            "bufferView" : 24,
            "componentType" : 5123,
            "count" : 1356,
            "type" : "SCALAR"
        },
        {
            "bufferView" : 25,
            "componentType" : 5126,
            "count" : 347,
            "max" : [
                -1.3415021896362305,
                5.797629356384277,
                0.6446765661239624
            ],
            "min" : [
                -2.351011276245117,
                2.420743703842163,
                -0.6446765661239624
            ],
            "type" : "VEC3"
        },
        {
            "bufferView" : 26,
            "componentType" : 5126,
            "count" : 347,
            "type" : "VEC3"
        },
        {
            "bufferView" : 27,
            "componentType" : 5126,
            "count" : 347,
            "type" : "VEC2"
        },
        {
            "bufferView" : 28,
            "componentType" : 5121,
            "count" : 347,
            "type" : "VEC4"
        },
        {
            "bufferView" : 29,
            "componentType" : 5126,
            "count" : 347,
            "type" : "VEC4"
        },
        {
            "bufferView" : 30,
            "componentType" : 5123,
            "count" : 1494,
            "type" : "SCALAR"
        },
        {
            "bufferView" : 31,
            "componentType" : 5126,
            "count" : 438,
            "max" : [
                1.3990615606307983,
                5.959065914154053,
                0.744097888469696
            ],
            "min" : [
                -1.3990615606307983,
                3.067770004272461,
                -0.744097888469696
            ],
            "type" : "VEC3"
        },
        {
            "bufferView" : 32,
            "componentType" : 5126,
            "count" : 438,
            "type" : "VEC3"
        },
        {
            "bufferView" : 33,
            "componentType" : 5126,
            "count" : 438,
            "type" : "VEC2"
        },
        {
            "bufferView" : 34,
            "componentType" : 5121,
            "count" : 438,
            "type" : "VEC4"
        },
        {
            "bufferView" : 35,
            "componentType" : 5126,
            "count" : 438,
            "type" : "VEC4"
        },
        {
            "bufferView" : 36,
            "componentType" : 5123,
            "count" : 1992,
            "type" : "SCALAR"
        }
    ],
    "bufferViews" : [
        {
            "buffer" : 0,
            "byteLength" : 11544,
            "byteOffset" : 0
        },
        {
            "buffer" : 0,
            "byteLength" : 11544,
            "byteOffset" : 11544
        },
        {
            "buffer" : 0,
            "byteLength" : 7696,
            "byteOffset" : 23088
        },
        {
            "buffer" : 0,
            "byteLength" : 3848,
            "byteOffset" : 30784
        },
        {
            "buffer" : 0,
            "byteLength" : 15392,
            "byteOffset" : 34632
        },
        {
            "buffer" : 0,
            "byteLength" : 10752,
            "byteOffset" : 50024
        },
        {
            "buffer" : 0,
            "byteLength" : 704,
            "byteOffset" : 60776
        },
        {
            "buffer" : 0,
            "byteLength" : 4164,
            "byteOffset" : 61480
        },
        {
            "buffer" : 0,
            "byteLength" : 4164,
            "byteOffset" : 65644
        },
        {
            "buffer" : 0,
            "byteLength" : 2776,
            "byteOffset" : 69808
        },
        {
            "buffer" : 0,
            "byteLength" : 1388,
            "byteOffset" : 72584
        },
        {
            "buffer" : 0,
            "byteLength" : 5552,
            "byteOffset" : 73972
        },
        {
            "buffer" : 0,
            "byteLength" : 2988,
            "byteOffset" : 79524
        },
        {
            "buffer" : 0,
            "byteLength" : 3708,
            "byteOffset" : 82512
        },
        {
            "buffer" : 0,
            "byteLength" : 3708,
            "byteOffset" : 86220
        },
        {
            "buffer" : 0,
            "byteLength" : 2472,
            "byteOffset" : 89928
        },
        {
            "buffer" : 0,
            "byteLength" : 1236,
            "byteOffset" : 92400
        },
        {
            "buffer" : 0,
            "byteLength" : 4944,
            "byteOffset" : 93636
        },
        {
            "buffer" : 0,
            "byteLength" : 2712,
            "byteOffset" : 98580
        },
        {
            "buffer" : 0,
            "byteLength" : 3708,
            "byteOffset" : 101292
        },
        {
            "buffer" : 0,
            "byteLength" : 3708,
            "byteOffset" : 105000
        },
        {
            "buffer" : 0,
            "byteLength" : 2472,
            "byteOffset" : 108708
        },
        {
            "buffer" : 0,
            "byteLength" : 1236,
            "byteOffset" : 111180
        },
        {
            "buffer" : 0,
            "byteLength" : 4944,
            "byteOffset" : 112416
        },
        {
            "buffer" : 0,
            "byteLength" : 2712,
            "byteOffset" : 117360
        },
        {
            "buffer" : 0,
            "byteLength" : 4164,
            "byteOffset" : 120072
        },
        {
            "buffer" : 0,
            "byteLength" : 4164,
            "byteOffset" : 124236
        },
        {
            "buffer" : 0,
            "byteLength" : 2776,
            "byteOffset" : 128400
        },
        {
            "buffer" : 0,
            "byteLength" : 1388,
            "byteOffset" : 131176
        },
        {
            "buffer" : 0,
            "byteLength" : 5552,
            "byteOffset" : 132564
        },
        {
            "buffer" : 0,
            "byteLength" : 2988,
            "byteOffset" : 138116
        },
        {
            "buffer" : 0,
            "byteLength" : 5256,
            "byteOffset" : 141104
        },
        {
            "buffer" : 0,
            "byteLength" : 5256,
            "byteOffset" : 146360
        },
        {
            "buffer" : 0,
            "byteLength" : 3504,
            "byteOffset" : 151616
        },
        {
            "buffer" : 0,
            "byteLength" : 1752,
            "byteOffset" : 155120
        },
        {
            "buffer" : 0,
            "byteLength" : 7008,
            "byteOffset" : 156872
        },
        {
            "buffer" : 0,
            "byteLength" : 3984,
            "byteOffset" : 163880
        }
    ],
    "buffers" : [
        {
            "byteLength" : 167864,
            "uri" : "render.bin"
        }
    ]
}
